<svg width="1409" height="412" viewBox="0 0 1409 412" fill="none" xmlns="http://www.w3.org/2000/svg">
<path fill-rule="evenodd" clip-rule="evenodd" d="M159.5 0C162.5 0 165 0.299999 165 0.799999C165 1.2 167.8 2.4 171.3 3.5C175.5 4.8 178.9 6.7 181.8 9.5C184.2 11.7 187.2 15.8 188.5 18.5C189.8 21.3 191.1 25.8 191.5 28.5C191.9 31.3 191.7 36.2 191.1 39.5C190.4 43.3 188.7 47.4 186.5 50.8C184.5 53.8 180.7 57.6 171.9 63.5L172 110.5L197.2 111.2C214.4 111.7 224.7 112.4 229.5 113.5C233.4 114.3 240.6 116.4 245.5 118C250.4 119.6 258.1 123 262.5 125.5C266.9 128 273.8 132.7 277.9 135.8C282 138.9 287.5 144 290.3 147C293 150 297.5 155.9 300.3 160C303.1 164.1 307.2 171.3 309.3 176C311.5 180.7 314.4 188.8 315.7 194C317 199.2 318.5 208 319 213.5C319.5 219 319.9 240.6 319.9 261.5C319.9 282.4 319.5 304 319 309.5C318.5 315 317 324.1 315.6 329.8C314.1 335.7 311.1 343.9 308.4 349.2C305.8 354.3 301.9 361.2 299.7 364.5C297.5 367.8 291.6 374.5 286.6 379.4C281.6 384.3 274.8 390.1 271.5 392.3C268.2 394.6 262 398.1 257.7 400.2C253.5 402.3 246.7 405.1 242.8 406.4C238.8 407.8 232.7 409.2 229.2 409.7C225.8 410.1 223 410.8 223 411.2C223 411.7 194.6 412 160 412C118.7 412 97 411.7 97 411C97 410.4 94 409.7 90.3 409.4C86.5 409 81.3 408 78.5 407C75.8 406.1 69.7 403.6 65 401.5C60.3 399.5 53.3 395.7 49.5 393.2C45.7 390.7 38.2 384.4 33 379.1C27.7 373.8 21.6 366.8 19.4 363.5C17.2 360.2 13.5 353.7 11.2 349C8.7 344.1 5.60001 335.4 0.600006 316.5L0.200004 267.5C4.17233e-06 235.3 0.200007 215.6 1.00001 210C1.60001 205.3 3.20001 197.4 4.50001 192.5C5.80001 187.6 8.30001 180.3 10 176.5C11.8 172.7 15.7 165.7 18.8 161C21.9 156.3 28.2 148.7 32.9 144C37.7 139.2 44 133.8 47 131.8C50 129.8 55.9 126.4 60 124.2C64.1 121.9 71.3 118.9 76 117.4C80.7 116 87.4 114.1 91 113.3C95.2 112.4 106.5 111.6 148 110.5V63L143.8 60.6C141.4 59.3 138 56.5 136.1 54.4C134.2 52.2 131.8 48.5 130.7 46C129.6 43.5 128.5 39.5 128.2 37C128 34.5 128.3 29.6 129 26C129.7 22.4 131 18.4 131.8 17C132.7 15.6 135 12.8 137 10.6C138.9 8.5 142.9 5.7 145.8 4.4C148.6 3.1 151.7 2 152.5 2C153.3 2 154 1.5 154 1C154 0.5 156.5 0 159.5 0ZM79 141.2C76 142.4 71.5 144.5 69 145.8C66.5 147.2 61.6 150.4 58.1 152.9C54.5 155.4 49.3 160.1 46.6 163.2C43.8 166.4 39.2 172.7 36.5 177.2C33.7 181.8 30 189.9 28.2 195.3C26.4 200.9 24.5 209.1 23.9 214.8C23.2 220.9 23 240.7 23.3 268.5C23.7 309.5 23.8 313.1 25.9 320.8C27 325.3 28.9 330.8 30 333C31.1 335.2 32 337.6 32 338.3C32 338.9 34.1 342.6 36.6 346.5C39.2 350.4 43.1 355.7 45.4 358.4C47.6 361.1 52.9 366 57 369.3C61.1 372.5 67.9 376.9 72 379C76.1 381 83.3 383.8 88 385.1L96.5 387.5H223.5C238.2 383.1 245.9 380.1 250 377.9C254.1 375.7 259.7 372 262.4 369.7C265.1 367.4 268.6 364.4 270 363C271.4 361.6 275 357.7 277.8 354.3C280.7 350.8 284.8 344.3 286.9 339.8C289.1 335.2 291.9 328.1 293.2 324C295.3 316.7 295.4 315 295.8 266C296.1 229.5 295.8 213.6 295 208.5C294.3 204.7 292.4 197.7 290.8 193C289.2 188.3 285.8 181.1 283.2 177C280.7 172.9 276.6 167.3 274.2 164.5C271.7 161.8 266.8 157.1 263.1 154.2C259.5 151.3 253.1 147.2 249 145.1C244.9 143 238.6 140.2 235 138.9L228.5 136.5C106.8 136.2 93.6 136.4 89.5 137.5C86.8 138.3 82 139.9 79 141.2ZM117.8 178L117.5 188.5L108 189.1C102.8 189.5 95.6 190.5 92 191.3C88.4 192.2 81.9 194.2 77.5 195.8C73.1 197.4 68.8 199.1 68 199.4C67 199.8 65.9333 199 64.8 197C63.4 194.7 63.3 193.8 64.3 193.1C64.9 192.6 68.2 190.9 71.5 189.2C74.8 187.6 80.7 185.1 84.5 183.8C88.3 182.4 95.1 180.7 99.5 180.1C103.9 179.4 108.2 178.7 109 178.5C109.8 178.4 112.2 178.2 117.8 178ZM213.3 177.7L219.4 178.4C222.8 178.8 229.3 179.8 234 180.6C239.1 181.5 246.6 183.9 253 186.6C258.8 189.1 264.4 191.8 265.5 192.6C267.4 194 267.4 194.2 265.8 196.8C264.8 198.3 263.5 199.4 262.8 199.3C262.1 199.2 257.4 197.5 252.5 195.6C247.6 193.7 239.4 191.4 234.5 190.6C229.6 189.7 222.7 189 213 189L213.3 177.7ZM109 213.1C109.8 213 113.4 213.7 117 214.5C120.6 215.4 124.8 217.1 126.4 218.3C128.1 219.5 130.2 222.3 131.2 224.5C132.2 226.7 133 229.8 133 231.5C133 233.1 132.1 236.4 131 238.7C129.6 241.6 127.6 243.8 124.8 245.4C122.4 246.8 119 247.9 117.3 247.9C115.5 247.9 112.5 247.4 110.8 246.6C109 245.9 106.3 243.9 104.8 242.1C103.2 240.4 101.6 237.3 101 235.2C100.4 232.9 100.4 230.3 100.9 228.5C101.4 226.8 101.4 224.8 101 224C100.3 222.7 98.8 222.6 93.3 223.2C89.6 223.6 85.9 224.5 85.2 225.2C84.5 225.9 83.6 226.1 83.2 225.7C82.8 225.3 83.6 223.8 85 222.4C86.4 221 89.8 218.7 92.5 217.4C95.3 216 99.8 214.5 102.5 214.1C105.3 213.6 108.2 213.1 109 213.1ZM230 213.6C232.5 213.9 236.2 214.6 238.4 215.3C240.5 215.9 243.8 217.7 245.6 219.2C247.5 220.7 249.7 223.9 250.6 226.2C252.1 229.9 252.1 231.1 250.9 235.4C249.9 238.7 248.3 241.3 245.8 243.6C243.5 245.6 240.5 247.2 238.3 247.6C236.2 247.9 232.9 247.9 231 247.5C228.8 247 226 245.2 223.5 242.6C221.2 240.3 219.1 237 218.7 235.2C218.3 233.4 218.3 229.9 219.5 222.6L212 223.3C207.9 223.7 203.9 224.5 203.2 225.2C202.5 225.9 201.7 226.1 201.5 225.7C201.2 225.3 201.2 224.6 201.4 224.2C201.6 223.8 204.2 221.8 207.1 219.7C210.6 217.3 214.8 215.4 219 214.5C222.6 213.7 227.5 213.3 230 213.6ZM113.2 274C114.2 274 118.1 276.8 121.8 280.2C125.6 283.6 130.8 288.3 133.3 290.5C135.9 292.7 138 294.9 138 295.5C138 296 136.7 298.6 135 301.2C132.3 305.5 132.1 306.2 133.3 309C134.1 311.2 136.5 313.3 141 315.9C144.6 318 149.3 320.5 151.5 321.4C153.7 322.3 159.8 324.2 165 325.5C170.2 326.9 175.9 328 177.5 328C179.2 328 181.6 327.2 182.8 326.3C184.5 325 185.4 323 185.8 319.6C186.2 316.9 187 314.4 187.5 313.9C188.1 313.4 195.2 312.9 203.4 312.7C212.3 312.6 218.8 312.9 219.6 313.5C220.3 314 221.8 319 222.9 324.5C223.9 330 224.6 334.9 224.4 335.5C224.2 336 221 337.9 217.3 339.7C213.6 341.4 207.8 343.6 204.5 344.5C200.9 345.6 193.2 346.4 185 346.7C172.9 347.1 170.5 346.8 161.5 344.5C156 343.1 147.9 340.3 143.5 338.4C139.1 336.5 133.1 333.5 130.1 331.7C127.1 329.9 120.8 324.9 116.1 320.5C111.5 316.1 105.9 309.8 103.8 306.5C101.7 303.2 98.8 298 97.4 295C96 291.9 95.1 288.9 95.4 288.2C95.7 287.5 99.5 284 103.7 280.5C107.9 276.9 112.2 274 113.2 274Z" fill="#000001"/>
<path d="M379 353.062V157H518.836V193.831H418.676V244.508H503.299V281.062H418.676V353.062H379Z" fill="#000001"/>
<path d="M630.123 355C615.326 355 602.378 352.046 591.28 346.138C580.182 340.046 571.581 331.462 565.477 320.385C559.373 309.123 556.321 295.831 556.321 280.508C556.321 264.815 559.373 251.338 565.477 240.077C571.766 228.631 580.459 219.862 591.557 213.769C602.656 207.677 615.418 204.631 629.846 204.631C644.644 204.631 657.499 207.769 668.412 214.046C679.325 220.323 687.834 229.092 693.938 240.354C700.042 251.615 703.094 265.092 703.094 280.785C703.094 296.108 700.042 309.4 693.938 320.662C688.019 331.738 679.603 340.231 668.689 346.138C657.961 352.046 645.106 355 630.123 355ZM629.569 319.554C638.077 319.554 644.921 317.708 650.1 314.015C655.279 310.323 658.979 305.523 661.198 299.615C663.603 293.523 664.805 287.154 664.805 280.508C664.805 273.862 663.603 267.492 661.198 261.4C658.979 255.308 655.279 250.323 650.1 246.446C645.106 242.385 638.262 240.354 629.569 240.354C621.245 240.354 614.494 242.385 609.314 246.446C604.135 250.323 600.343 255.308 597.939 261.4C595.719 267.492 594.609 273.862 594.609 280.508C594.609 287.338 595.719 293.708 597.939 299.615C600.343 305.523 604.135 310.323 609.314 314.015C614.494 317.708 621.245 319.554 629.569 319.554Z" fill="#000001"/>
<path d="M755.708 353.062V207.123H792.054L793.997 224.015C798.066 219.031 802.69 215.154 807.869 212.385C813.233 209.431 818.597 207.4 823.961 206.292C829.511 205.185 834.505 204.631 838.944 204.631C853.002 204.631 863.915 207.677 871.683 213.769C879.637 219.862 885.279 228.077 888.608 238.415C892.122 248.569 893.88 259.923 893.88 272.477V353.062H855.036V277.462C855.036 273.031 854.666 268.6 853.926 264.169C853.187 259.738 851.799 255.677 849.765 251.985C847.915 248.292 845.233 245.338 841.718 243.123C838.204 240.908 833.58 239.8 827.846 239.8C820.447 239.8 814.251 241.646 809.256 245.338C804.262 249.031 800.563 254.015 798.158 260.292C795.754 266.569 794.551 273.492 794.551 281.062V353.062H755.708Z" fill="#000001"/>
<path d="M1018.31 355C1002.96 355 989.916 351.954 979.188 345.862C968.46 339.769 960.229 331.185 954.495 320.108C948.761 308.846 945.894 295.738 945.894 280.785C945.894 265.646 948.853 252.446 954.772 241.185C960.691 229.738 969.015 220.785 979.743 214.323C990.656 207.862 1003.51 204.631 1018.31 204.631C1029.41 204.631 1039.12 206.477 1047.44 210.169C1055.95 213.862 1063.07 219.031 1068.81 225.677C1074.72 232.323 1079.07 240.077 1081.85 248.938C1084.81 257.615 1086.19 267.031 1086.01 277.185C1086.01 279.769 1085.91 282.262 1085.73 284.662C1085.55 287.062 1085.18 289.462 1084.62 291.862H984.46C985.014 297.4 986.587 302.477 989.176 307.092C991.766 311.708 995.373 315.4 999.997 318.169C1004.81 320.754 1010.73 322.046 1017.75 322.046C1022.38 322.046 1026.63 321.585 1030.52 320.662C1034.4 319.554 1037.73 317.892 1040.51 315.677C1043.28 313.462 1045.22 310.877 1046.33 307.923H1084.62C1082.22 318.815 1077.68 327.769 1071.02 334.785C1064.55 341.8 1056.69 346.969 1047.44 350.292C1038.19 353.431 1028.48 355 1018.31 355ZM985.292 264.723H1048.83C1048.64 259.738 1047.35 255.123 1044.94 250.877C1042.72 246.446 1039.3 242.938 1034.68 240.354C1030.24 237.585 1024.51 236.2 1017.48 236.2C1010.45 236.2 1004.53 237.585 999.719 240.354C995.095 243.123 991.581 246.723 989.176 251.154C986.957 255.4 985.662 259.923 985.292 264.723Z" fill="#000001"/>
<path d="M1123.8 353.062L1200.37 157H1244.76L1320.51 353.062H1277.78L1265.57 319.554H1178.73L1166.52 353.062H1123.8ZM1191.49 283.831H1253.09L1222.57 199.092L1191.49 283.831Z" fill="#000001"/>
<path d="M1369.32 353.062V157H1409V353.062H1369.32Z" fill="#000001"/>
</svg>
