<svg version="1.2" xmlns="http://www.w3.org/2000/svg" viewBox="0 0 1409 412" width="1409" height="412"><style>.a{fill:#000001}</style><path fill-rule="evenodd" class="a" d="m159.5 0c3 0 5.5 0.3 5.5 0.8 0 0.4 2.8 1.6 6.3 2.7 4.2 1.3 7.6 3.2 10.5 6 2.4 2.2 5.4 6.3 6.7 9 1.3 2.8 2.6 7.3 3 10 0.4 2.8 0.2 7.7-0.4 11-0.7 3.8-2.4 7.9-4.6 11.3-2 3-5.8 6.8-14.6 12.7l0.1 47 25.2 0.7c17.2 0.5 27.5 1.2 32.3 2.3 3.9 0.8 11.1 2.9 16 4.5 4.9 1.6 12.6 5 17 7.5 4.4 2.5 11.3 7.2 15.4 10.3 4.1 3.1 9.6 8.2 12.4 11.2 2.7 3 7.2 8.9 10 13 2.8 4.1 6.9 11.3 9 16 2.2 4.7 5.1 12.8 6.4 18 1.3 5.2 2.8 14 3.3 19.5 0.5 5.5 0.9 27.1 0.9 48 0 20.9-0.4 42.5-0.9 48-0.5 5.5-2 14.6-3.4 20.3-1.5 5.9-4.5 14.1-7.2 19.4-2.6 5.1-6.5 12-8.7 15.3-2.2 3.3-8.1 10-13.1 14.9-5 4.9-11.8 10.7-15.1 12.9-3.3 2.3-9.5 5.8-13.8 7.9-4.2 2.1-11 4.9-14.9 6.2-4 1.4-10.1 2.8-13.6 3.3-3.4 0.4-6.2 1.1-6.2 1.5 0 0.5-28.4 0.8-63 0.8-41.3 0-63-0.3-63-1 0-0.6-3-1.3-6.7-1.6-3.8-0.4-9-1.4-11.8-2.4-2.7-0.9-8.8-3.4-13.5-5.5-4.7-2-11.7-5.8-15.5-8.3-3.8-2.5-11.3-8.8-16.5-14.1-5.3-5.3-11.4-12.3-13.6-15.6-2.2-3.3-5.9-9.8-8.2-14.5-2.5-4.9-5.6-13.6-10.6-32.5l-0.4-49c-0.2-32.2 0-51.9 0.8-57.5 0.6-4.7 2.2-12.6 3.5-17.5 1.3-4.9 3.8-12.2 5.5-16 1.8-3.8 5.7-10.8 8.8-15.5 3.1-4.7 9.4-12.3 14.1-17 4.8-4.8 11.1-10.2 14.1-12.2 3-2 8.9-5.4 13-7.6 4.1-2.3 11.3-5.3 16-6.8 4.7-1.4 11.4-3.3 15-4.1 4.2-0.9 15.5-1.7 57-2.8v-47.5l-4.2-2.4c-2.4-1.3-5.8-4.1-7.7-6.2-1.9-2.2-4.3-5.9-5.4-8.4-1.1-2.5-2.2-6.5-2.5-9-0.2-2.5 0.1-7.4 0.8-11 0.7-3.6 2-7.6 2.8-9 0.9-1.4 3.2-4.2 5.2-6.4 1.9-2.1 5.9-4.9 8.8-6.2 2.8-1.3 5.9-2.4 6.7-2.4 0.8 0 1.5-0.5 1.5-1 0-0.5 2.5-1 5.5-1zm-80.5 141.2c-3 1.2-7.5 3.3-10 4.6-2.5 1.4-7.4 4.6-10.9 7.1-3.6 2.5-8.8 7.2-11.5 10.3-2.8 3.2-7.4 9.5-10.1 14-2.8 4.6-6.5 12.7-8.3 18.1-1.8 5.6-3.7 13.8-4.3 19.5-0.7 6.1-0.9 25.9-0.6 53.7 0.4 41 0.5 44.6 2.6 52.3 1.1 4.5 3 10 4.1 12.2 1.1 2.2 2 4.6 2 5.3 0 0.6 2.1 4.3 4.6 8.2 2.6 3.9 6.5 9.2 8.8 11.9 2.2 2.7 7.5 7.6 11.6 10.9 4.1 3.2 10.9 7.6 15 9.7 4.1 2 11.3 4.8 16 6.1l8.5 2.4h127c14.7-4.4 22.4-7.4 26.5-9.6 4.1-2.2 9.7-5.9 12.4-8.2 2.7-2.3 6.2-5.3 7.6-6.7 1.4-1.4 5-5.3 7.8-8.7 2.9-3.5 7-10 9.1-14.5 2.2-4.6 5-11.7 6.3-15.8 2.1-7.3 2.2-9 2.6-58 0.3-36.5 0-52.4-0.8-57.5-0.7-3.8-2.6-10.8-4.2-15.5-1.6-4.7-5-11.9-7.6-16-2.5-4.1-6.6-9.7-9-12.5-2.5-2.7-7.4-7.4-11.1-10.3-3.6-2.9-10-7-14.1-9.1-4.1-2.1-10.4-4.9-14-6.2l-6.5-2.4c-121.7-0.3-134.9-0.1-139 1-2.7 0.8-7.5 2.4-10.5 3.7zm38.8 36.8l-0.3 10.5-9.5 0.6c-5.2 0.4-12.4 1.4-16 2.2-3.6 0.9-10.1 2.9-14.5 4.5-4.4 1.6-8.7 3.3-9.5 3.6q-1.5 0.6-3.2-2.4c-1.4-2.3-1.5-3.2-0.5-3.9 0.6-0.5 3.9-2.2 7.2-3.9 3.3-1.6 9.2-4.1 13-5.4 3.8-1.4 10.6-3.1 15-3.7 4.4-0.7 8.7-1.4 9.5-1.6 0.8-0.1 3.2-0.3 8.8-0.5zm95.5-0.3l6.1 0.7c3.4 0.4 9.9 1.4 14.6 2.2 5.1 0.9 12.6 3.3 19 6 5.8 2.5 11.4 5.2 12.5 6 1.9 1.4 1.9 1.6 0.3 4.2-1 1.5-2.3 2.6-3 2.5-0.7-0.1-5.4-1.8-10.3-3.7-4.9-1.9-13.1-4.2-18-5-4.9-0.9-11.8-1.6-21.5-1.6zm-104.3 35.4c0.8-0.1 4.4 0.6 8 1.4 3.6 0.9 7.8 2.6 9.4 3.8 1.7 1.2 3.8 4 4.8 6.2 1 2.2 1.8 5.3 1.8 7 0 1.6-0.9 4.9-2 7.2-1.4 2.9-3.4 5.1-6.2 6.7-2.4 1.4-5.8 2.5-7.5 2.5-1.8 0-4.8-0.5-6.5-1.3-1.8-0.7-4.5-2.7-6-4.5-1.6-1.7-3.2-4.8-3.8-6.9-0.6-2.3-0.6-4.9-0.1-6.7 0.5-1.7 0.5-3.7 0.1-4.5-0.7-1.3-2.2-1.4-7.7-0.8-3.7 0.4-7.4 1.3-8.1 2-0.7 0.7-1.6 0.9-2 0.5-0.4-0.4 0.4-1.9 1.8-3.3 1.4-1.4 4.8-3.7 7.5-5 2.8-1.4 7.3-2.9 10-3.3 2.8-0.5 5.7-1 6.5-1zm121 0.5c2.5 0.3 6.2 1 8.4 1.7 2.1 0.6 5.4 2.4 7.2 3.9 1.9 1.5 4.1 4.7 5 7 1.5 3.7 1.5 4.9 0.3 9.2-1 3.3-2.6 5.9-5.1 8.2-2.3 2-5.3 3.6-7.5 4-2.1 0.3-5.4 0.3-7.3-0.1-2.2-0.5-5-2.3-7.5-4.9-2.3-2.3-4.4-5.6-4.8-7.4-0.4-1.8-0.4-5.3 0.8-12.6l-7.5 0.7c-4.1 0.4-8.1 1.2-8.8 1.9-0.7 0.7-1.5 0.9-1.7 0.5-0.3-0.4-0.3-1.1-0.1-1.5 0.2-0.4 2.8-2.4 5.7-4.5 3.5-2.4 7.7-4.3 11.9-5.2 3.6-0.8 8.5-1.2 11-0.9zm-116.8 60.4c1 0 4.9 2.8 8.6 6.2 3.8 3.4 9 8.1 11.5 10.3 2.6 2.2 4.7 4.4 4.7 5 0 0.5-1.3 3.1-3 5.7-2.7 4.3-2.9 5-1.7 7.8 0.8 2.2 3.2 4.3 7.7 6.9 3.6 2.1 8.3 4.6 10.5 5.5 2.2 0.9 8.3 2.8 13.5 4.1 5.2 1.4 10.9 2.5 12.5 2.5 1.7 0 4.1-0.8 5.3-1.7 1.7-1.3 2.6-3.3 3-6.7 0.4-2.7 1.2-5.2 1.7-5.7 0.6-0.5 7.7-1 15.9-1.2 8.9-0.1 15.4 0.2 16.2 0.8 0.7 0.5 2.2 5.5 3.3 11 1 5.5 1.7 10.4 1.5 11-0.2 0.5-3.4 2.4-7.1 4.2-3.7 1.7-9.5 3.9-12.8 4.8-3.6 1.1-11.3 1.9-19.5 2.2-12.1 0.4-14.5 0.1-23.5-2.2-5.5-1.4-13.6-4.2-18-6.1-4.4-1.9-10.4-4.9-13.4-6.7-3-1.8-9.3-6.8-14-11.2-4.6-4.4-10.2-10.7-12.3-14-2.1-3.3-5-8.5-6.4-11.5-1.4-3.1-2.3-6.1-2-6.8 0.3-0.7 4.1-4.2 8.3-7.7 4.2-3.6 8.5-6.5 9.5-6.5z"/><path fill-rule="evenodd" class="a" d="m456 319.1v-196.1h139.8v36.8h-100.1v50.7h84.6v36.6h-84.6v72zm207.1 4.9q-22.2 0-38.8-8.9-16.7-9.1-25.8-25.7-9.2-16.9-9.2-39.9 0-23.5 9.2-40.4 9.4-17.2 26-26.3 16.7-9.2 38.3-9.2 22.2 0 38.6 9.4 16.4 9.5 25.5 26.4 9.2 16.8 9.2 40.4 0 23-9.2 39.9-8.9 16.6-25.2 25.4-16.1 8.9-38.6 8.9zm-0.6-35.4q12.8 0 20.6-5.6 7.7-5.5 11.1-14.4 3.6-9.1 3.6-19.1 0-10-3.6-19.1-3.4-9.1-11.1-15-7.5-6-20.6-6-12.4 0-20.2 6-7.8 5.9-11.4 15-3.3 9.1-3.3 19.1 0 10.3 3.3 19.1 3.6 8.9 11.4 14.4 7.8 5.6 20.2 5.6zm94.2 31.5v-146h36.3l2 16.9q6.1-7.5 13.8-11.6 8.1-4.4 16.1-6.1 8.4-1.7 15-1.7 21.1 0 32.8 9.2 11.9 9.1 16.9 24.6 5.3 15.2 5.3 34.1v80.6h-38.9v-75.6q0-6.7-1.1-13.3-1.1-6.7-4.2-12.2-2.7-5.6-8-8.9-5.3-3.3-13.9-3.3-11.1 0-18.6 5.5-7.5 5.6-11.1 15-3.6 9.4-3.6 20.8v72zm229.6 1.9q-23 0-39.1-9.1-16.1-9.2-24.7-25.8-8.6-16.9-8.6-39.3 0-22.7 8.9-39.6 8.9-17.2 25-26.9 16.3-9.7 38.5-9.7 16.7 0 29.2 5.6 12.7 5.5 21.3 15.5 8.9 9.9 13.1 23.2 4.4 13.1 4.1 28.3 0 3.9-0.3 7.5-0.2 3.6-1.1 7.2h-100.1q0.8 8.3 4.7 15.2 3.9 6.9 10.8 11.1 7.2 3.8 17.8 3.8 6.9 0 12.7-1.3 5.9-1.7 10-5 4.2-3.3 5.8-7.8h38.3q-3.6 16.4-13.6 26.9-9.7 10.5-23.5 15.5-13.9 4.7-29.2 4.7zm-33-90.3h63.5q-0.2-7.5-3.8-13.8-3.4-6.7-10.3-10.5-6.7-4.2-17.2-4.2-10.5 0-17.8 4.2-6.9 4.1-10.5 10.8-3.3 6.3-3.9 13.5z"/><path fill-rule="evenodd" class="a" d="m1111.8 316.1l76.6-196.1h44.4l75.7 196.1h-42.7l-12.2-33.5h-86.9l-12.2 33.5zm67.7-69.3h61.6l-30.5-84.7zm146.8 66.2v-196h39.7v196z"/></svg>